<svg width="37" height="13" viewBox="0 0 37 13" fill="none" xmlns="http://www.w3.org/2000/svg">
<path fill-rule="evenodd" clip-rule="evenodd" d="M0.164062 12.8435H4.22438C5.95509 12.8435 7.19446 11.8681 7.19446 10.0672C7.19446 8.77977 6.44491 8.17037 5.85934 7.8996C6.34991 7.66942 7.05867 6.97811 7.05867 5.90835C7.05867 4.25573 5.95509 3.19922 4.06111 3.19922H0.164062V12.8435ZM2.05804 4.87914H3.91119C4.71497 4.87914 5.1647 5.32622 5.1647 5.98949C5.1647 6.6535 4.71497 7.10057 3.91119 7.10057H2.05804V4.87914ZM2.05804 8.79379H4.03365C4.89156 8.79379 5.30049 9.32205 5.30049 9.97204C5.30049 10.6228 4.89231 11.1643 4.03365 11.1643H2.05804V8.79379Z" fill="white"/>
<path d="M12.9715 12.8435V8.88822L15.8867 3.19922H13.8295L12.0446 7.08655L10.2322 3.19922H8.17498L11.0909 8.88822V12.8435H12.9715Z" fill="white"/>
<path fill-rule="evenodd" clip-rule="evenodd" d="M21.2559 12.8435H17.1955V3.19922H21.0926C22.9866 3.19922 24.0902 4.25573 24.0902 5.90835C24.0902 6.97811 23.3814 7.66942 22.8908 7.8996C23.4764 8.17037 24.226 8.77977 24.226 10.0672C24.226 11.8681 22.9866 12.8435 21.2559 12.8435ZM20.9427 4.87914H19.0895V7.10057H20.9427C21.7465 7.10057 22.1962 6.6535 22.1962 5.98949C22.1962 5.32622 21.7465 4.87914 20.9427 4.87914ZM21.0651 8.79379H19.0895V11.1643H21.0651C21.9238 11.1643 22.332 10.6228 22.332 9.97204C22.332 9.32205 21.9238 8.79379 21.0651 8.79379Z" fill="white"/>
<path d="M34.2963 12.8442V4.87914H36.8307V3.19922H29.8678V4.87914H32.4023V12.8442H34.2963Z" fill="white"/>
<path d="M26.2969 0.332031V9.97627H28.1908V0.332031H26.2969Z" fill="#F7A600"/>
</svg>
